<?xml version="1.0" encoding="utf-8"?>
<!-- Generator: Adobe Illustrator 19.2.0, SVG Export Plug-In . SVG Version: 6.00 Build 0)  -->
<svg version="1.1" id="Layer_1" xmlns="http://www.w3.org/2000/svg" xmlns:xlink="http://www.w3.org/1999/xlink" x="0px" y="0px"
	 viewBox="0 0 35 35" style="enable-background:new 0 0 35 35;" xml:space="preserve">
<style type="text/css">
	.st0{fill:none;}
	.st1{fill:none;stroke:#000000;stroke-width:0.3;stroke-linecap:square;stroke-linejoin:bevel;}
	.st2{fill:#FFFFFF;}
	.st3{fill:none;stroke:#00376E;stroke-width:11;}
	.st4{fill:#B67110;}
	.st5{fill:#BE1E2D;}
	.st6{clip-path:url(#SVGID_2_);fill:url(#SVGID_3_);}
	.st7{fill:none;stroke:#818285;stroke-width:3.2882;stroke-miterlimit:10;}
	.st8{fill:none;stroke:#818285;stroke-width:1.3742;stroke-miterlimit:10;}
	.st9{fill:#58595B;}
	.st10{fill:#D1D3D4;stroke:#231F20;stroke-width:0.4241;stroke-miterlimit:10;}
	.st11{fill:none;stroke:#D1D3D4;stroke-width:3.3855;stroke-miterlimit:10;}
</style>
<pattern  x="-55" width="72" height="72" patternUnits="userSpaceOnUse" id="Diamond" viewBox="72.2 -144.2 72 72" style="overflow:visible;">
	<g>
		<rect x="72.2" y="-144.2" class="st0" width="72" height="72"/>
		<g>
			<line class="st1" x1="144.2" y1="-72.2" x2="216.2" y2="-0.2"/>
			<line class="st1" x1="216.2" y1="-72.2" x2="144.2" y2="-0.2"/>
			<line class="st1" x1="210.2" y1="-72.2" x2="141.2" y2="-3.2"/>
			<line class="st1" x1="204.2" y1="-72.2" x2="141.2" y2="-9.2"/>
			<line class="st1" x1="198.2" y1="-72.2" x2="141.2" y2="-15.2"/>
			<line class="st1" x1="192.2" y1="-72.2" x2="141.2" y2="-21.2"/>
			<line class="st1" x1="186.2" y1="-72.2" x2="141.2" y2="-27.2"/>
			<line class="st1" x1="180.2" y1="-72.2" x2="141.2" y2="-33.2"/>
			<line class="st1" x1="174.2" y1="-72.2" x2="141.2" y2="-39.2"/>
			<line class="st1" x1="168.2" y1="-72.2" x2="141.2" y2="-45.2"/>
			<line class="st1" x1="162.2" y1="-72.2" x2="141.2" y2="-51.2"/>
			<line class="st1" x1="156.2" y1="-72.2" x2="141.2" y2="-57.2"/>
			<line class="st1" x1="150.2" y1="-72.2" x2="141.2" y2="-63.2"/>
			<line class="st1" x1="144.2" y1="-72.2" x2="141.2" y2="-69.2"/>
		</g>
		<g>
			<line class="st1" x1="72.2" y1="-72.2" x2="144.2" y2="-0.2"/>
			<line class="st1" x1="78.2" y1="-72.2" x2="147.2" y2="-3.2"/>
			<line class="st1" x1="84.2" y1="-72.2" x2="147.2" y2="-9.2"/>
			<line class="st1" x1="90.2" y1="-72.2" x2="147.2" y2="-15.2"/>
			<line class="st1" x1="96.2" y1="-72.2" x2="147.2" y2="-21.2"/>
			<line class="st1" x1="102.2" y1="-72.2" x2="147.2" y2="-27.2"/>
			<line class="st1" x1="108.2" y1="-72.2" x2="147.2" y2="-33.2"/>
			<line class="st1" x1="114.2" y1="-72.2" x2="147.2" y2="-39.2"/>
			<line class="st1" x1="120.2" y1="-72.2" x2="147.2" y2="-45.2"/>
			<line class="st1" x1="126.2" y1="-72.2" x2="147.2" y2="-51.2"/>
			<line class="st1" x1="132.2" y1="-72.2" x2="147.2" y2="-57.2"/>
			<line class="st1" x1="138.2" y1="-72.2" x2="147.3" y2="-63.2"/>
			<line class="st1" x1="144.2" y1="-72.2" x2="147.3" y2="-69.2"/>
			<line class="st1" x1="144.2" y1="-72.2" x2="72.2" y2="-0.2"/>
			<line class="st1" x1="138.2" y1="-72.2" x2="69.2" y2="-3.2"/>
			<line class="st1" x1="132.2" y1="-72.2" x2="69.2" y2="-9.2"/>
			<line class="st1" x1="126.2" y1="-72.2" x2="69.2" y2="-15.2"/>
			<line class="st1" x1="120.2" y1="-72.2" x2="69.2" y2="-21.2"/>
			<line class="st1" x1="114.2" y1="-72.2" x2="69.2" y2="-27.2"/>
			<line class="st1" x1="108.2" y1="-72.2" x2="69.2" y2="-33.2"/>
			<line class="st1" x1="102.2" y1="-72.2" x2="69.2" y2="-39.2"/>
			<line class="st1" x1="96.2" y1="-72.2" x2="69.2" y2="-45.2"/>
			<line class="st1" x1="90.2" y1="-72.2" x2="69.2" y2="-51.2"/>
			<line class="st1" x1="84.2" y1="-72.2" x2="69.2" y2="-57.2"/>
			<line class="st1" x1="78.2" y1="-72.2" x2="69.2" y2="-63.2"/>
			<line class="st1" x1="72.2" y1="-72.2" x2="69.2" y2="-69.2"/>
		</g>
		<g>
			<line class="st1" x1="0.2" y1="-72.2" x2="72.2" y2="-0.2"/>
			<line class="st1" x1="6.2" y1="-72.2" x2="75.2" y2="-3.2"/>
			<line class="st1" x1="12.2" y1="-72.2" x2="75.2" y2="-9.2"/>
			<line class="st1" x1="18.2" y1="-72.2" x2="75.2" y2="-15.2"/>
			<line class="st1" x1="24.2" y1="-72.2" x2="75.2" y2="-21.2"/>
			<line class="st1" x1="30.2" y1="-72.2" x2="75.2" y2="-27.2"/>
			<line class="st1" x1="36.2" y1="-72.2" x2="75.2" y2="-33.2"/>
			<line class="st1" x1="42.2" y1="-72.2" x2="75.2" y2="-39.2"/>
			<line class="st1" x1="48.2" y1="-72.2" x2="75.2" y2="-45.2"/>
			<line class="st1" x1="54.2" y1="-72.2" x2="75.2" y2="-51.2"/>
			<line class="st1" x1="60.2" y1="-72.2" x2="75.2" y2="-57.2"/>
			<line class="st1" x1="66.2" y1="-72.2" x2="75.3" y2="-63.2"/>
			<line class="st1" x1="72.2" y1="-72.2" x2="75.3" y2="-69.2"/>
			<line class="st1" x1="72.2" y1="-72.2" x2="0.2" y2="-0.2"/>
		</g>
		<g>
			<line class="st1" x1="144.2" y1="-144.2" x2="216.2" y2="-72.2"/>
			<line class="st1" x1="141.2" y1="-141.2" x2="210.2" y2="-72.2"/>
			<line class="st1" x1="141.2" y1="-135.2" x2="204.2" y2="-72.2"/>
			<line class="st1" x1="141.2" y1="-129.2" x2="198.2" y2="-72.2"/>
			<line class="st1" x1="141.2" y1="-123.2" x2="192.2" y2="-72.2"/>
			<line class="st1" x1="141.2" y1="-117.2" x2="186.2" y2="-72.2"/>
			<line class="st1" x1="141.2" y1="-111.2" x2="180.2" y2="-72.2"/>
			<line class="st1" x1="141.2" y1="-105.2" x2="174.2" y2="-72.2"/>
			<line class="st1" x1="141.2" y1="-99.2" x2="168.2" y2="-72.2"/>
			<line class="st1" x1="141.2" y1="-93.2" x2="162.2" y2="-72.2"/>
			<line class="st1" x1="141.2" y1="-87.2" x2="156.2" y2="-72.2"/>
			<line class="st1" x1="141.2" y1="-81.3" x2="150.2" y2="-72.2"/>
			<line class="st1" x1="141.2" y1="-75.3" x2="144.2" y2="-72.2"/>
			<line class="st1" x1="216.2" y1="-144.2" x2="144.2" y2="-72.2"/>
			<line class="st1" x1="210.2" y1="-144.2" x2="141.2" y2="-75.2"/>
			<line class="st1" x1="204.2" y1="-144.2" x2="141.2" y2="-81.2"/>
			<line class="st1" x1="198.2" y1="-144.2" x2="141.2" y2="-87.2"/>
			<line class="st1" x1="192.2" y1="-144.2" x2="141.2" y2="-93.2"/>
			<line class="st1" x1="186.2" y1="-144.2" x2="141.2" y2="-99.2"/>
			<line class="st1" x1="180.2" y1="-144.2" x2="141.2" y2="-105.2"/>
			<line class="st1" x1="174.2" y1="-144.2" x2="141.2" y2="-111.2"/>
			<line class="st1" x1="168.2" y1="-144.2" x2="141.2" y2="-117.2"/>
			<line class="st1" x1="162.2" y1="-144.2" x2="141.2" y2="-123.2"/>
			<line class="st1" x1="156.2" y1="-144.2" x2="141.2" y2="-129.2"/>
			<line class="st1" x1="150.2" y1="-144.2" x2="141.2" y2="-135.2"/>
			<line class="st1" x1="144.2" y1="-144.2" x2="141.2" y2="-141.2"/>
		</g>
		<g>
			<line class="st1" x1="72.2" y1="-144.2" x2="144.2" y2="-72.2"/>
			<line class="st1" x1="69.2" y1="-141.2" x2="138.2" y2="-72.2"/>
			<line class="st1" x1="69.2" y1="-135.2" x2="132.2" y2="-72.2"/>
			<line class="st1" x1="69.2" y1="-129.2" x2="126.2" y2="-72.2"/>
			<line class="st1" x1="69.2" y1="-123.2" x2="120.2" y2="-72.2"/>
			<line class="st1" x1="69.2" y1="-117.2" x2="114.2" y2="-72.2"/>
			<line class="st1" x1="69.2" y1="-111.2" x2="108.2" y2="-72.2"/>
			<line class="st1" x1="69.2" y1="-105.2" x2="102.2" y2="-72.2"/>
			<line class="st1" x1="69.2" y1="-99.2" x2="96.2" y2="-72.2"/>
			<line class="st1" x1="69.2" y1="-93.2" x2="90.2" y2="-72.2"/>
			<line class="st1" x1="69.2" y1="-87.2" x2="84.2" y2="-72.2"/>
			<line class="st1" x1="69.2" y1="-81.3" x2="78.2" y2="-72.2"/>
			<line class="st1" x1="69.2" y1="-75.3" x2="72.2" y2="-72.2"/>
			<line class="st1" x1="78.2" y1="-144.2" x2="147.2" y2="-75.2"/>
			<line class="st1" x1="84.2" y1="-144.2" x2="147.2" y2="-81.2"/>
			<line class="st1" x1="90.2" y1="-144.2" x2="147.2" y2="-87.2"/>
			<line class="st1" x1="96.2" y1="-144.2" x2="147.2" y2="-93.2"/>
			<line class="st1" x1="102.2" y1="-144.2" x2="147.2" y2="-99.2"/>
			<line class="st1" x1="108.2" y1="-144.2" x2="147.2" y2="-105.2"/>
			<line class="st1" x1="114.2" y1="-144.2" x2="147.2" y2="-111.2"/>
			<line class="st1" x1="120.2" y1="-144.2" x2="147.2" y2="-117.2"/>
			<line class="st1" x1="126.2" y1="-144.2" x2="147.2" y2="-123.2"/>
			<line class="st1" x1="132.2" y1="-144.2" x2="147.2" y2="-129.2"/>
			<line class="st1" x1="138.2" y1="-144.2" x2="147.3" y2="-135.2"/>
			<line class="st1" x1="144.2" y1="-144.2" x2="147.3" y2="-141.2"/>
			<line class="st1" x1="144.2" y1="-144.2" x2="72.2" y2="-72.2"/>
			<line class="st1" x1="138.2" y1="-144.2" x2="69.2" y2="-75.2"/>
			<line class="st1" x1="132.2" y1="-144.2" x2="69.2" y2="-81.2"/>
			<line class="st1" x1="126.2" y1="-144.2" x2="69.2" y2="-87.2"/>
			<line class="st1" x1="120.2" y1="-144.2" x2="69.2" y2="-93.2"/>
			<line class="st1" x1="114.2" y1="-144.2" x2="69.2" y2="-99.2"/>
			<line class="st1" x1="108.2" y1="-144.2" x2="69.2" y2="-105.2"/>
			<line class="st1" x1="102.2" y1="-144.2" x2="69.2" y2="-111.2"/>
			<line class="st1" x1="96.2" y1="-144.2" x2="69.2" y2="-117.2"/>
			<line class="st1" x1="90.2" y1="-144.2" x2="69.2" y2="-123.2"/>
			<line class="st1" x1="84.2" y1="-144.2" x2="69.2" y2="-129.2"/>
			<line class="st1" x1="78.2" y1="-144.2" x2="69.2" y2="-135.2"/>
			<line class="st1" x1="72.2" y1="-144.2" x2="69.2" y2="-141.2"/>
			<line class="st1" x1="147.2" y1="-141.2" x2="78.2" y2="-72.2"/>
			<line class="st1" x1="147.2" y1="-135.2" x2="84.2" y2="-72.2"/>
			<line class="st1" x1="147.2" y1="-129.2" x2="90.2" y2="-72.2"/>
			<line class="st1" x1="147.2" y1="-123.2" x2="96.2" y2="-72.2"/>
			<line class="st1" x1="147.2" y1="-117.2" x2="102.2" y2="-72.2"/>
			<line class="st1" x1="147.2" y1="-111.2" x2="108.2" y2="-72.2"/>
			<line class="st1" x1="147.2" y1="-105.2" x2="114.2" y2="-72.2"/>
			<line class="st1" x1="147.2" y1="-99.2" x2="120.2" y2="-72.2"/>
			<line class="st1" x1="147.2" y1="-93.2" x2="126.2" y2="-72.2"/>
			<line class="st1" x1="147.2" y1="-87.2" x2="132.2" y2="-72.2"/>
			<line class="st1" x1="147.3" y1="-81.3" x2="138.2" y2="-72.2"/>
			<line class="st1" x1="147.3" y1="-75.3" x2="144.2" y2="-72.2"/>
		</g>
		<g>
			<line class="st1" x1="0.2" y1="-144.2" x2="72.2" y2="-72.2"/>
			<line class="st1" x1="6.2" y1="-144.2" x2="75.2" y2="-75.2"/>
			<line class="st1" x1="12.2" y1="-144.2" x2="75.2" y2="-81.2"/>
			<line class="st1" x1="18.2" y1="-144.2" x2="75.2" y2="-87.2"/>
			<line class="st1" x1="24.2" y1="-144.2" x2="75.2" y2="-93.2"/>
			<line class="st1" x1="30.2" y1="-144.2" x2="75.2" y2="-99.2"/>
			<line class="st1" x1="36.2" y1="-144.2" x2="75.2" y2="-105.2"/>
			<line class="st1" x1="42.2" y1="-144.2" x2="75.2" y2="-111.2"/>
			<line class="st1" x1="48.2" y1="-144.2" x2="75.2" y2="-117.2"/>
			<line class="st1" x1="54.2" y1="-144.2" x2="75.2" y2="-123.2"/>
			<line class="st1" x1="60.2" y1="-144.2" x2="75.2" y2="-129.2"/>
			<line class="st1" x1="66.2" y1="-144.2" x2="75.3" y2="-135.2"/>
			<line class="st1" x1="72.2" y1="-144.2" x2="75.3" y2="-141.2"/>
			<line class="st1" x1="72.2" y1="-144.2" x2="0.2" y2="-72.2"/>
			<line class="st1" x1="75.2" y1="-141.2" x2="6.2" y2="-72.2"/>
			<line class="st1" x1="75.2" y1="-135.2" x2="12.2" y2="-72.2"/>
			<line class="st1" x1="75.2" y1="-129.2" x2="18.2" y2="-72.2"/>
			<line class="st1" x1="75.2" y1="-123.2" x2="24.2" y2="-72.2"/>
			<line class="st1" x1="75.2" y1="-117.2" x2="30.2" y2="-72.2"/>
			<line class="st1" x1="75.2" y1="-111.2" x2="36.2" y2="-72.2"/>
			<line class="st1" x1="75.2" y1="-105.2" x2="42.2" y2="-72.2"/>
			<line class="st1" x1="75.2" y1="-99.2" x2="48.2" y2="-72.2"/>
			<line class="st1" x1="75.2" y1="-93.2" x2="54.2" y2="-72.2"/>
			<line class="st1" x1="75.2" y1="-87.2" x2="60.2" y2="-72.2"/>
			<line class="st1" x1="75.3" y1="-81.3" x2="66.2" y2="-72.2"/>
			<line class="st1" x1="75.3" y1="-75.3" x2="72.2" y2="-72.2"/>
		</g>
		<g>
			<line class="st1" x1="144.2" y1="-216.2" x2="216.2" y2="-144.2"/>
			<line class="st1" x1="141.2" y1="-213.2" x2="210.2" y2="-144.2"/>
			<line class="st1" x1="141.2" y1="-207.2" x2="204.2" y2="-144.2"/>
			<line class="st1" x1="141.2" y1="-201.2" x2="198.2" y2="-144.2"/>
			<line class="st1" x1="141.2" y1="-195.2" x2="192.2" y2="-144.2"/>
			<line class="st1" x1="141.2" y1="-189.2" x2="186.2" y2="-144.2"/>
			<line class="st1" x1="141.2" y1="-183.2" x2="180.2" y2="-144.2"/>
			<line class="st1" x1="141.2" y1="-177.2" x2="174.2" y2="-144.2"/>
			<line class="st1" x1="141.2" y1="-171.2" x2="168.2" y2="-144.2"/>
			<line class="st1" x1="141.2" y1="-165.2" x2="162.2" y2="-144.2"/>
			<line class="st1" x1="141.2" y1="-159.2" x2="156.2" y2="-144.2"/>
			<line class="st1" x1="141.2" y1="-153.3" x2="150.2" y2="-144.2"/>
			<line class="st1" x1="141.2" y1="-147.3" x2="144.2" y2="-144.2"/>
			<line class="st1" x1="216.2" y1="-216.2" x2="144.2" y2="-144.2"/>
		</g>
		<g>
			<line class="st1" x1="72.2" y1="-216.2" x2="144.2" y2="-144.2"/>
			<line class="st1" x1="69.2" y1="-213.2" x2="138.2" y2="-144.2"/>
			<line class="st1" x1="69.2" y1="-207.2" x2="132.2" y2="-144.2"/>
			<line class="st1" x1="69.2" y1="-201.2" x2="126.2" y2="-144.2"/>
			<line class="st1" x1="69.2" y1="-195.2" x2="120.2" y2="-144.2"/>
			<line class="st1" x1="69.2" y1="-189.2" x2="114.2" y2="-144.2"/>
			<line class="st1" x1="69.2" y1="-183.2" x2="108.2" y2="-144.2"/>
			<line class="st1" x1="69.2" y1="-177.2" x2="102.2" y2="-144.2"/>
			<line class="st1" x1="69.2" y1="-171.2" x2="96.2" y2="-144.2"/>
			<line class="st1" x1="69.2" y1="-165.2" x2="90.2" y2="-144.2"/>
			<line class="st1" x1="69.2" y1="-159.2" x2="84.2" y2="-144.2"/>
			<line class="st1" x1="69.2" y1="-153.3" x2="78.2" y2="-144.2"/>
			<line class="st1" x1="69.2" y1="-147.3" x2="72.2" y2="-144.2"/>
			<line class="st1" x1="144.2" y1="-216.2" x2="72.2" y2="-144.2"/>
			<line class="st1" x1="147.2" y1="-213.2" x2="78.2" y2="-144.2"/>
			<line class="st1" x1="147.2" y1="-207.2" x2="84.2" y2="-144.2"/>
			<line class="st1" x1="147.2" y1="-201.2" x2="90.2" y2="-144.2"/>
			<line class="st1" x1="147.2" y1="-195.2" x2="96.2" y2="-144.2"/>
			<line class="st1" x1="147.2" y1="-189.2" x2="102.2" y2="-144.2"/>
			<line class="st1" x1="147.2" y1="-183.2" x2="108.2" y2="-144.2"/>
			<line class="st1" x1="147.2" y1="-177.2" x2="114.2" y2="-144.2"/>
			<line class="st1" x1="147.2" y1="-171.2" x2="120.2" y2="-144.2"/>
			<line class="st1" x1="147.2" y1="-165.2" x2="126.2" y2="-144.2"/>
			<line class="st1" x1="147.2" y1="-159.2" x2="132.2" y2="-144.2"/>
			<line class="st1" x1="147.3" y1="-153.3" x2="138.2" y2="-144.2"/>
			<line class="st1" x1="147.3" y1="-147.3" x2="144.2" y2="-144.2"/>
		</g>
		<g>
			<line class="st1" x1="0.2" y1="-216.2" x2="72.2" y2="-144.2"/>
			<line class="st1" x1="72.2" y1="-216.2" x2="0.2" y2="-144.2"/>
			<line class="st1" x1="75.2" y1="-213.2" x2="6.2" y2="-144.2"/>
			<line class="st1" x1="75.2" y1="-207.2" x2="12.2" y2="-144.2"/>
			<line class="st1" x1="75.2" y1="-201.2" x2="18.2" y2="-144.2"/>
			<line class="st1" x1="75.2" y1="-195.2" x2="24.2" y2="-144.2"/>
			<line class="st1" x1="75.2" y1="-189.2" x2="30.2" y2="-144.2"/>
			<line class="st1" x1="75.2" y1="-183.2" x2="36.2" y2="-144.2"/>
			<line class="st1" x1="75.2" y1="-177.2" x2="42.2" y2="-144.2"/>
			<line class="st1" x1="75.2" y1="-171.2" x2="48.2" y2="-144.2"/>
			<line class="st1" x1="75.2" y1="-165.2" x2="54.2" y2="-144.2"/>
			<line class="st1" x1="75.2" y1="-159.2" x2="60.2" y2="-144.2"/>
			<line class="st1" x1="75.3" y1="-153.3" x2="66.2" y2="-144.2"/>
			<line class="st1" x1="75.3" y1="-147.3" x2="72.2" y2="-144.2"/>
		</g>
	</g>
</pattern>
<rect class="st2" width="35.1" height="35"/>
<g>
	<defs>
		<rect id="SVGID_1_" width="35.1" height="35"/>
	</defs>
	<clipPath id="SVGID_2_">
		<use xlink:href="#SVGID_1_"  style="overflow:visible;"/>
	</clipPath>
	<pattern  id="SVGID_3_" xlink:href="#Diamond" patternTransform="matrix(3.0372 0 0 3.0372 16112.8643 16390.332)">
	</pattern>
	<rect class="st6" width="52.9" height="35.6"/>
</g>
</svg>
